<svg width="25" height="19" viewBox="0 0 25 19"  xmlns="http://www.w3.org/2000/svg">
<path d="M21.1634 1.57493C19.5427 0.833185 17.8323 0.304265 16.075 0.00141735C16.059 -0.00169545 16.0424 0.000348871 16.0276 0.00725566C16.0128 0.0141624 16.0006 0.0255747 15.9927 0.0398464C15.774 0.42933 15.5303 0.937217 15.3594 1.33813C13.4651 1.05124 11.5383 1.05124 9.64397 1.33813C9.45386 0.893908 9.2393 0.460489 9.00128 0.0398464C8.99307 0.0258943 8.98081 0.0147525 8.96612 0.00789156C8.95143 0.00103065 8.935 -0.00122676 8.91899 0.00141735C7.16159 0.303636 5.4511 0.832581 3.8306 1.57493C3.81688 1.58067 3.80525 1.59046 3.79727 1.60297C0.555693 6.43154 -0.332823 11.1407 0.103623 15.7906C0.104683 15.8021 0.108093 15.8133 0.113646 15.8235C0.119198 15.8337 0.126775 15.8426 0.135913 15.8498C2.02294 17.2438 4.13383 18.308 6.37844 18.9968C6.39426 19.0014 6.4111 19.001 6.42673 18.9958C6.44236 18.9906 6.45603 18.9808 6.46594 18.9677C6.94718 18.3134 7.37633 17.6227 7.74299 16.8967C7.74811 16.8868 7.75106 16.8759 7.75166 16.8648C7.75225 16.8536 7.75047 16.8425 7.74644 16.8321C7.7424 16.8217 7.7362 16.8123 7.72825 16.8044C7.72029 16.7966 7.71076 16.7905 7.70028 16.7866C7.02678 16.5296 6.37476 16.2198 5.75033 15.8602C5.73889 15.8536 5.72926 15.8442 5.72229 15.833C5.71533 15.8218 5.71126 15.8091 5.71043 15.7959C5.70961 15.7828 5.71206 15.7696 5.71757 15.7576C5.72307 15.7456 5.73147 15.7352 5.742 15.7272C5.8735 15.6291 6.0027 15.528 6.12949 15.4239C6.14058 15.415 6.15395 15.4092 6.16812 15.4074C6.18228 15.4056 6.19667 15.4077 6.2097 15.4136C10.3012 17.2758 14.7303 17.2758 18.7739 15.4136C18.7871 15.4075 18.8017 15.4053 18.816 15.4071C18.8304 15.4089 18.844 15.4148 18.8552 15.4239C18.9802 15.5257 19.1114 15.6296 19.2437 15.7272C19.2541 15.7351 19.2624 15.7453 19.268 15.7571C19.2735 15.7689 19.2761 15.7818 19.2755 15.7948C19.2749 15.8078 19.2711 15.8205 19.2645 15.8317C19.2578 15.8429 19.2486 15.8523 19.2374 15.8591C18.6144 16.2222 17.9618 16.5321 17.2865 16.7856C17.2759 16.7896 17.2664 16.7958 17.2584 16.8037C17.2505 16.8116 17.2443 16.8212 17.2402 16.8316C17.2362 16.8421 17.2344 16.8533 17.2351 16.8645C17.2357 16.8758 17.2386 16.8867 17.2438 16.8967C17.6187 17.6217 18.0479 18.3113 18.5198 18.9667C18.5295 18.98 18.5431 18.99 18.5588 18.9952C18.5745 19.0005 18.5915 19.0006 18.6073 18.9958C20.8556 18.3091 22.9699 17.2448 24.8592 15.8487C24.8684 15.8422 24.8761 15.8339 24.8818 15.8242C24.8876 15.8146 24.8912 15.8038 24.8925 15.7926C25.4133 10.4157 24.0196 5.74501 21.1957 1.60505C21.1891 1.59109 21.1776 1.58001 21.1634 1.57389V1.57493ZM8.35443 12.9582C7.12217 12.9582 6.10762 11.8313 6.10762 10.4458C6.10762 9.06133 7.10342 7.93339 8.35443 7.93339C9.61481 7.93339 10.621 9.07172 10.6012 10.4469C10.6012 11.8313 9.60543 12.9582 8.35443 12.9582ZM16.6615 12.9582C15.4292 12.9582 14.4147 11.8313 14.4147 10.4458C14.4147 9.06133 15.4094 7.93339 16.6615 7.93339C17.9219 7.93339 18.9281 9.07172 18.9083 10.4469C18.9083 11.8313 17.9229 12.9582 16.6615 12.9582Z" fill="white"/>
</svg>
