<svg width="24" height="24" viewBox="0 0 24 24" fill="none" xmlns="http://www.w3.org/2000/svg">
<path d="M11.625 0C8.46688 0 8.07259 0.0145312 6.83259 0.06975C5.59453 0.127875 4.75172 0.322594 4.01062 0.610312C3.24628 0.90675 2.59722 1.30491 1.95106 1.95106C1.30491 2.59722 0.905781 3.24531 0.610312 4.01062C0.322594 4.75172 0.126906 5.59453 0.06975 6.83259C0.011625 8.07259 0 8.46688 0 11.625C0 14.7831 0.0145312 15.1774 0.06975 16.4174C0.127875 17.6545 0.322594 18.4983 0.610312 19.2394C0.902189 20.0152 1.35973 20.718 1.95106 21.2989C2.53161 21.8907 3.23456 22.3483 4.01062 22.6397C4.75269 22.9264 5.5955 23.1231 6.83259 23.1802C8.07259 23.2384 8.46688 23.25 11.625 23.25C14.7831 23.25 15.1774 23.2355 16.4174 23.1802C17.6545 23.1221 18.4983 22.9264 19.2394 22.6397C20.015 22.3474 20.7178 21.89 21.2989 21.2989C21.8909 20.7185 22.3485 20.0156 22.6397 19.2394C22.9264 18.4983 23.1231 17.6545 23.1802 16.4174C23.2384 15.1774 23.25 14.7831 23.25 11.625C23.25 8.46688 23.2355 8.07259 23.1802 6.83259C23.1221 5.5955 22.9264 4.75075 22.6397 4.01062C22.3477 3.23487 21.8901 2.53205 21.2989 1.95106C20.7188 1.35881 20.0157 0.901121 19.2394 0.610312C18.4983 0.322594 17.6545 0.126906 16.4174 0.06975C15.1774 0.011625 14.7831 0 11.625 0ZM11.625 2.0925C14.7279 2.0925 15.098 2.108 16.3234 2.16128C17.4569 2.21456 18.072 2.4025 18.4808 2.56331C19.0253 2.77353 19.4108 3.02541 19.8197 3.43131C20.2256 3.83819 20.4774 4.22472 20.6877 4.76916C20.8465 5.17797 21.0364 5.79313 21.0877 6.92656C21.143 8.153 21.1556 8.52113 21.1556 11.625C21.1556 14.7289 21.141 15.098 21.0839 16.3234C21.0248 17.4569 20.8359 18.072 20.676 18.4808C20.4869 18.9853 20.1897 19.4423 19.8051 19.8197C19.4294 20.2045 18.9727 20.501 18.4682 20.6877C18.0614 20.8465 17.4365 21.0364 16.3031 21.0877C15.0689 21.143 14.7056 21.1556 11.5959 21.1556C8.48528 21.1556 8.122 21.141 6.88878 21.0839C5.75438 21.0248 5.12953 20.8359 4.72266 20.676C4.21784 20.4893 3.76134 20.1916 3.38675 19.8051C2.99788 19.4319 2.69963 18.9746 2.51487 18.4682C2.35503 18.0614 2.16709 17.4365 2.108 16.3031C2.06441 15.0825 2.04891 14.7056 2.04891 11.6105C2.04891 8.51434 2.06441 8.13653 2.108 6.90138C2.16709 5.76794 2.35503 5.14406 2.51487 4.73719C2.71831 4.185 2.97891 3.80719 3.38675 3.39934C3.79266 2.99344 4.17144 2.73188 4.72266 2.52941C5.12953 2.36859 5.74081 2.17969 6.87425 2.12156C8.10941 2.07797 8.47269 2.06344 11.5814 2.06344L11.625 2.0925V2.0925ZM11.625 5.65556C10.8411 5.65556 10.0648 5.80997 9.3406 6.10996C8.61635 6.40995 7.95828 6.84966 7.40397 7.40397C6.84966 7.95828 6.40995 8.61635 6.10996 9.3406C5.80997 10.0648 5.65556 10.8411 5.65556 11.625C5.65556 12.4089 5.80997 13.1852 6.10996 13.9094C6.40995 14.6337 6.84966 15.2917 7.40397 15.846C7.95828 16.4003 8.61635 16.84 9.3406 17.14C10.0648 17.44 10.8411 17.5944 11.625 17.5944C13.2082 17.5944 14.7265 16.9655 15.846 15.846C16.9655 14.7265 17.5944 13.2082 17.5944 11.625C17.5944 10.0418 16.9655 8.52346 15.846 7.40397C14.7265 6.28448 13.2082 5.65556 11.625 5.65556V5.65556ZM11.625 15.5C9.48406 15.5 7.75 13.7659 7.75 11.625C7.75 9.48406 9.48406 7.75 11.625 7.75C13.7659 7.75 15.5 9.48406 15.5 11.625C15.5 13.7659 13.7659 15.5 11.625 15.5ZM19.2258 5.42016C19.2124 5.78114 19.0595 6.12285 18.7994 6.37347C18.5392 6.6241 18.192 6.76413 17.8308 6.76413C17.4696 6.76413 17.1224 6.6241 16.8623 6.37347C16.6021 6.12285 16.4493 5.78114 16.4358 5.42016C16.4358 5.05018 16.5828 4.69536 16.8444 4.43374C17.106 4.17213 17.4608 4.02516 17.8308 4.02516C18.2008 4.02516 18.5556 4.17213 18.8172 4.43374C19.0788 4.69536 19.2258 5.05018 19.2258 5.42016V5.42016Z" fill="white"/>
</svg>
