<svg width="21" height="21" viewBox="0 0 21 21" fill="none" xmlns="http://www.w3.org/2000/svg">
<path d="M0.8639 11.4938L0.936506 11.3618L5.31538 3.44007C5.37938 3.32405 5.52982 3.33608 5.57826 3.46204C6.30978 5.35803 6.94104 7.71596 6.64531 9.18391C6.51906 9.78787 6.17317 10.6059 5.78404 11.3618C5.73391 11.4719 5.67855 11.5799 5.61975 11.6839C5.5921 11.7318 5.54538 11.7599 5.49522 11.7599H0.991866C0.870783 11.7599 0.799898 11.6079 0.8639 11.4938Z" fill="white"/>
<path d="M21 12.8856V14.056C21 14.1232 20.9615 14.1829 20.9055 14.2091C20.5625 14.3659 19.3882 14.9408 18.9 15.6651C17.654 17.5149 16.702 20.16 14.574 20.16H5.69623C2.54975 20.16 0 17.4309 0 14.0635V13.9552C0 13.8656 0.0682465 13.7928 0.152239 13.7928H5.10124C5.19924 13.7928 5.27101 13.8899 5.26226 13.9925C5.22725 14.336 5.28675 14.6869 5.43899 15.0061C5.73298 15.6427 6.34202 16.0403 6.99999 16.0403H9.45V14H7.028C6.90373 14 6.83026 13.8469 6.90199 13.7387C6.92826 13.6957 6.95801 13.6509 6.9895 13.6005C7.21873 13.2533 7.546 12.7139 7.87148 12.0997C8.09375 11.6853 8.30901 11.2429 8.48225 10.7987C8.51726 10.7184 8.54524 10.6363 8.57325 10.556C8.62049 10.4141 8.6695 10.2816 8.70448 10.1491C8.73949 10.0371 8.7675 9.91947 8.79551 9.80933C8.87776 9.43227 8.91274 9.0328 8.91274 8.61839C8.91274 8.456 8.90574 8.28614 8.89173 8.12372C8.88476 7.94639 8.86376 7.76906 8.84275 7.59173C8.82874 7.43492 8.80251 7.28 8.7745 7.11761C8.73949 6.88053 8.69051 6.64535 8.63449 6.40827L8.61526 6.31867C8.57325 6.15629 8.53823 6.00133 8.48925 5.83894C8.35098 5.32933 8.19174 4.8328 8.02376 4.368C7.96251 4.1832 7.89249 4.00588 7.8225 3.82855C7.71924 3.56159 7.61424 3.31894 7.51798 3.08933C7.46901 2.9848 7.42699 2.88959 7.38501 2.79253C7.33774 2.68239 7.28876 2.57229 7.23974 2.46771C7.20476 2.38745 7.16449 2.3128 7.13648 2.23814L6.83727 1.64827C6.79525 1.568 6.86524 1.4728 6.94749 1.49706L8.82 2.03841H8.82526C8.82874 2.03841 8.83049 2.04027 8.83226 2.04027L9.07898 2.11306L9.35026 2.19518L9.45 2.22506V1.03788C9.45 0.464796 9.88048 0 10.4125 0C10.6785 0 10.92 0.115714 11.0932 0.304265C11.2665 0.492816 11.375 0.750408 11.375 1.03788V2.8L11.5745 2.85971C11.5902 2.86533 11.606 2.8728 11.62 2.88398C11.669 2.92318 11.739 2.98108 11.8282 3.05198C11.8982 3.11173 11.9735 3.18453 12.0645 3.25918C12.2448 3.41414 12.46 3.61388 12.6963 3.84345C12.7592 3.90135 12.8205 3.96106 12.8765 4.02082C13.181 4.32318 13.5223 4.67788 13.8477 5.06988C13.9387 5.17998 14.028 5.29198 14.119 5.40959C14.21 5.52906 14.3062 5.64667 14.3903 5.76429C14.5005 5.92106 14.6195 6.08345 14.7228 6.25335C14.7717 6.33361 14.8278 6.41573 14.875 6.496C15.008 6.71067 15.1253 6.93282 15.2373 7.15492C15.2845 7.25759 15.3335 7.36959 15.3755 7.47973C15.4997 7.77653 15.5978 8.07894 15.6607 8.38135C15.68 8.44667 15.694 8.51761 15.701 8.58108V8.59598C15.722 8.68561 15.729 8.78082 15.736 8.87788C15.764 9.18772 15.75 9.49759 15.687 9.80933C15.6607 9.94188 15.6257 10.0669 15.5838 10.1995C15.5417 10.3264 15.4997 10.4589 15.4455 10.584C15.3405 10.8434 15.2163 11.1029 15.0692 11.3456C15.022 11.4352 14.966 11.5304 14.91 11.62C14.8488 11.7152 14.7857 11.8048 14.7298 11.8926C14.6528 12.0046 14.5705 12.1221 14.4865 12.2267C14.4112 12.3368 14.3342 12.4469 14.2502 12.544C14.133 12.6915 14.021 12.8315 13.9038 12.9659C13.8337 13.0536 13.7585 13.1432 13.6815 13.2235C13.6062 13.3131 13.5293 13.3933 13.4592 13.468C13.342 13.5931 13.244 13.6901 13.1618 13.7704L12.9692 13.9589C12.9412 13.9851 12.9045 14 12.866 14H11.375V16.0403H13.251C13.671 16.0403 14.07 15.8816 14.392 15.5904C14.5022 15.4877 14.9835 15.0435 15.5523 14.3733C15.5715 14.3509 15.596 14.3341 15.624 14.3267L20.8057 12.7288C20.902 12.6989 21 12.7773 21 12.8856Z" fill="white"/>
</svg>
