<svg width="24" height="19" viewBox="0 0 24 19" fill="none" xmlns="http://www.w3.org/2000/svg">
<path d="M23.2045 2.2509C22.334 2.63414 21.4119 2.88711 20.4678 3.00168C21.4618 2.4042 22.2061 1.46722 22.5632 0.363771C21.6419 0.901427 20.6208 1.2928 19.5339 1.51077C18.8168 0.743937 17.8665 0.235335 16.8307 0.0639439C15.7949 -0.107447 14.7315 0.0679632 13.8056 0.562937C12.8797 1.05791 12.1431 1.84475 11.7103 2.80127C11.2775 3.75778 11.1726 4.83045 11.4119 5.85271C7.44969 5.66574 3.93991 3.76215 1.58875 0.886896C1.16133 1.61328 0.938393 2.44176 0.943562 3.28455C0.943562 4.94111 1.78637 6.39715 3.06319 7.25255C2.30646 7.22846 1.56644 7.02386 0.904813 6.6558V6.71393C0.904383 7.81481 1.28482 8.88193 1.98158 9.73425C2.67835 10.5866 3.64852 11.1716 4.7275 11.3901C4.02835 11.5774 3.29609 11.6056 2.58462 11.4724C2.89087 12.4199 3.48524 13.2481 4.28479 13.8415C5.08435 14.4349 6.04922 14.7639 7.04475 14.7826C5.35867 16.1059 3.27677 16.8241 1.13344 16.8219C0.755625 16.8219 0.378781 16.7996 0 16.757C2.18522 18.1561 4.72606 18.8989 7.32084 18.8969C16.0909 18.8969 20.8814 11.6352 20.8814 5.34896C20.8814 5.14552 20.8814 4.94208 20.8669 4.73865C21.8027 4.06523 22.6099 3.22916 23.25 2.27027L23.2045 2.2509Z" fill="white"/>
</svg>
